<svg id="visual" viewBox="0 0 960 300" width="960" height="300" xmlns="http://www.w3.org/2000/svg" xmlns:xlink="http://www.w3.org/1999/xlink" version="1.1"><rect x="0" y="0" width="960" height="300" fill="#406b8a"></rect><path d="M0 107L22.8 103.2C45.7 99.3 91.3 91.7 137 90.5C182.7 89.3 228.3 94.7 274 101.3C319.7 108 365.3 116 411.2 116.3C457 116.7 503 109.3 548.8 106.3C594.7 103.3 640.3 104.7 686 100.3C731.7 96 777.3 86 823 82.7C868.7 79.3 914.3 82.7 937.2 84.3L960 86L960 0L937.2 0C914.3 0 868.7 0 823 0C777.3 0 731.7 0 686 0C640.3 0 594.7 0 548.8 0C503 0 457 0 411.2 0C365.3 0 319.7 0 274 0C228.3 0 182.7 0 137 0C91.3 0 45.7 0 22.8 0L0 0Z" fill="#a8a89e"></path><path d="M0 101L22.8 100C45.7 99 91.3 97 137 90.2C182.7 83.3 228.3 71.7 274 69.2C319.7 66.7 365.3 73.3 411.2 73.3C457 73.3 503 66.7 548.8 66.2C594.7 65.7 640.3 71.3 686 74.2C731.7 77 777.3 77 823 74.5C868.7 72 914.3 67 937.2 64.5L960 62L960 0L937.2 0C914.3 0 868.7 0 823 0C777.3 0 731.7 0 686 0C640.3 0 594.7 0 548.8 0C503 0 457 0 411.2 0C365.3 0 319.7 0 274 0C228.3 0 182.7 0 137 0C91.3 0 45.7 0 22.8 0L0 0Z" fill="#83837c"></path><path d="M0 73L22.8 69.5C45.7 66 91.3 59 137 54C182.7 49 228.3 46 274 47.2C319.7 48.3 365.3 53.7 411.2 55.2C457 56.7 503 54.3 548.8 56C594.7 57.7 640.3 63.3 686 65.8C731.7 68.3 777.3 67.7 823 67.2C868.7 66.7 914.3 66.3 937.2 66.2L960 66L960 0L937.2 0C914.3 0 868.7 0 823 0C777.3 0 731.7 0 686 0C640.3 0 594.7 0 548.8 0C503 0 457 0 411.2 0C365.3 0 319.7 0 274 0C228.3 0 182.7 0 137 0C91.3 0 45.7 0 22.8 0L0 0Z" fill="#60605b"></path><path d="M0 53L22.8 52.8C45.7 52.7 91.3 52.3 137 48.8C182.7 45.3 228.3 38.7 274 34.8C319.7 31 365.3 30 411.2 34C457 38 503 47 548.8 47.8C594.7 48.7 640.3 41.3 686 36.8C731.7 32.3 777.3 30.7 823 29.8C868.7 29 914.3 29 937.2 29L960 29L960 0L937.2 0C914.3 0 868.7 0 823 0C777.3 0 731.7 0 686 0C640.3 0 594.7 0 548.8 0C503 0 457 0 411.2 0C365.3 0 319.7 0 274 0C228.3 0 182.7 0 137 0C91.3 0 45.7 0 22.8 0L0 0Z" fill="#3f3f3c"></path><path d="M0 27L22.8 28.5C45.7 30 91.3 33 137 33.8C182.7 34.7 228.3 33.3 274 29.3C319.7 25.3 365.3 18.7 411.2 17.5C457 16.3 503 20.7 548.8 24.5C594.7 28.3 640.3 31.7 686 31.8C731.7 32 777.3 29 823 26.5C868.7 24 914.3 22 937.2 21L960 20L960 0L937.2 0C914.3 0 868.7 0 823 0C777.3 0 731.7 0 686 0C640.3 0 594.7 0 548.8 0C503 0 457 0 411.2 0C365.3 0 319.7 0 274 0C228.3 0 182.7 0 137 0C91.3 0 45.7 0 22.8 0L0 0Z" fill="#202020"></path></svg>