<svg id="visual" viewBox="0 0 960 300" width="960" height="300" xmlns="http://www.w3.org/2000/svg" xmlns:xlink="http://www.w3.org/1999/xlink" version="1.1"><rect x="0" y="0" width="960" height="300" fill="#F7CACA"></rect><path d="M0 94L22.8 93.3C45.7 92.7 91.3 91.3 137 89.2C182.7 87 228.3 84 274 86C319.7 88 365.3 95 411.2 93.8C457 92.7 503 83.3 548.8 85.2C594.7 87 640.3 100 686 103.5C731.7 107 777.3 101 823 96.3C868.7 91.7 914.3 88.3 937.2 86.7L960 85L960 0L937.2 0C914.3 0 868.7 0 823 0C777.3 0 731.7 0 686 0C640.3 0 594.7 0 548.8 0C503 0 457 0 411.2 0C365.3 0 319.7 0 274 0C228.3 0 182.7 0 137 0C91.3 0 45.7 0 22.8 0L0 0Z" fill="#cccccc"></path><path d="M0 100L22.8 98.3C45.7 96.7 91.3 93.3 137 92C182.7 90.7 228.3 91.3 274 87.7C319.7 84 365.3 76 411.2 73.2C457 70.3 503 72.7 548.8 71.5C594.7 70.3 640.3 65.7 686 65C731.7 64.3 777.3 67.7 823 74.5C868.7 81.3 914.3 91.7 937.2 96.8L960 102L960 0L937.2 0C914.3 0 868.7 0 823 0C777.3 0 731.7 0 686 0C640.3 0 594.7 0 548.8 0C503 0 457 0 411.2 0C365.3 0 319.7 0 274 0C228.3 0 182.7 0 137 0C91.3 0 45.7 0 22.8 0L0 0Z" fill="#d8d8d8"></path><path d="M0 67L22.8 67C45.7 67 91.3 67 137 63.7C182.7 60.3 228.3 53.7 274 54.7C319.7 55.7 365.3 64.3 411.2 68.3C457 72.3 503 71.7 548.8 70.2C594.7 68.7 640.3 66.3 686 66.2C731.7 66 777.3 68 823 67.3C868.7 66.7 914.3 63.3 937.2 61.7L960 60L960 0L937.2 0C914.3 0 868.7 0 823 0C777.3 0 731.7 0 686 0C640.3 0 594.7 0 548.8 0C503 0 457 0 411.2 0C365.3 0 319.7 0 274 0C228.3 0 182.7 0 137 0C91.3 0 45.7 0 22.8 0L0 0Z" fill="#e5e5e5"></path><path d="M0 54L22.8 51.7C45.7 49.3 91.3 44.7 137 43.8C182.7 43 228.3 46 274 46.2C319.7 46.3 365.3 43.7 411.2 40.3C457 37 503 33 548.8 34.7C594.7 36.3 640.3 43.7 686 45C731.7 46.3 777.3 41.7 823 40.3C868.7 39 914.3 41 937.2 42L960 43L960 0L937.2 0C914.3 0 868.7 0 823 0C777.3 0 731.7 0 686 0C640.3 0 594.7 0 548.8 0C503 0 457 0 411.2 0C365.3 0 319.7 0 274 0C228.3 0 182.7 0 137 0C91.3 0 45.7 0 22.8 0L0 0Z" fill="#f2f2f2"></path><path d="M0 25L22.8 25.2C45.7 25.3 91.3 25.7 137 25C182.7 24.3 228.3 22.7 274 22.7C319.7 22.7 365.3 24.3 411.2 25.3C457 26.3 503 26.7 548.8 24.8C594.7 23 640.3 19 686 19.8C731.7 20.7 777.3 26.3 823 29.2C868.7 32 914.3 32 937.2 32L960 32L960 0L937.2 0C914.3 0 868.7 0 823 0C777.3 0 731.7 0 686 0C640.3 0 594.7 0 548.8 0C503 0 457 0 411.2 0C365.3 0 319.7 0 274 0C228.3 0 182.7 0 137 0C91.3 0 45.7 0 22.8 0L0 0Z" fill="#ffffff"></path></svg>